<svg xmlns="http://www.w3.org/2000/svg" xmlns:xlink="http://www.w3.org/1999/xlink" viewBox="0,0,256,256" width="100px" height="100px" fill-rule="nonzero"><g fill="#ffffff" fill-rule="nonzero" stroke="none" stroke-width="1" stroke-linecap="butt" stroke-linejoin="miter" stroke-miterlimit="10" stroke-dasharray="" stroke-dashoffset="0" font-family="none" font-weight="none" font-size="none" text-anchor="none" style="mix-blend-mode: normal"><path d="M0,256v-256h256v256z" id="bgRectangle"></path></g><g fill="none" fill-rule="nonzero" stroke="none" stroke-width="1" stroke-linecap="butt" stroke-linejoin="miter" stroke-miterlimit="10" stroke-dasharray="" stroke-dashoffset="0" font-family="none" font-weight="none" font-size="none" text-anchor="none" style="mix-blend-mode: normal"><g transform="scale(2.56,2.56)"><path d="M83.105,15h-66.21l5.842,66.211l27.263,7.789l27.263,-7.789l5.842,-66.211z" fill="#3070b7"></path><path d="M50,90c-0.093,0 -0.185,-0.013 -0.274,-0.039l-27.263,-7.79c-0.398,-0.114 -0.686,-0.461 -0.722,-0.874l-5.843,-66.21c-0.024,-0.279 0.069,-0.556 0.259,-0.763c0.19,-0.207 0.457,-0.324 0.738,-0.324h66.211c0.28,0 0.548,0.118 0.737,0.325c0.189,0.207 0.283,0.484 0.259,0.763l-5.843,66.21c-0.036,0.413 -0.323,0.76 -0.722,0.874l-27.263,7.79c-0.089,0.025 -0.181,0.038 -0.274,0.038zM23.673,80.438l26.327,7.522l26.327,-7.522l5.687,-64.438h-64.028z" fill="#1f212b"></path><path d="M50,20.5v62.463l21.811,-6.231l4.898,-56.232z" fill="#09ace3"></path><path d="M67.721,30.579h-17.721l-1,3.421l1,4.368h9.542l-0.584,7.79h-8.958l-1,3.842l1,3.947h8.568l-0.584,8.764l-7.984,2.726l-1,4.563l1,3.616l15.384,-5.063l1.363,-22.395v0z" fill="#fefdef"></path><path d="M50,30.579v7.789h-17.332l-0.584,-7.789zM41.042,46.158l0.389,7.789h8.569v-7.789zM41.821,57.842h-7.789l0.584,10.711l15.384,5.063v-8.179l-7.984,-2.726z" fill="#eeecd9"></path><path d="M50,31.079c-0.276,0 -0.5,-0.224 -0.5,-0.5v-10.079c0,-0.276 0.224,-0.5 0.5,-0.5h3.5c0.276,0 0.5,0.224 0.5,0.5c0,0.276 -0.224,0.5 -0.5,0.5h-3v9.579c0,0.276 -0.224,0.5 -0.5,0.5z" fill="#1f212b"></path><path d="M60.5,21h-4c-0.276,0 -0.5,-0.224 -0.5,-0.5c0,-0.276 0.224,-0.5 0.5,-0.5h4c0.276,0 0.5,0.224 0.5,0.5c0,0.276 -0.224,0.5 -0.5,0.5z" fill="#1f212b"></path><path d="M50,83.463c-0.107,0 -0.213,-0.035 -0.301,-0.101c-0.126,-0.095 -0.199,-0.243 -0.199,-0.399v-6.463c0,-0.276 0.224,-0.5 0.5,-0.5c0.276,0 0.5,0.224 0.5,0.5v5.8l20.843,-5.955l4.82,-55.345h-12.663c-0.276,0 -0.5,-0.224 -0.5,-0.5c0,-0.276 0.224,-0.5 0.5,-0.5h13.209c0.141,0 0.273,0.059 0.368,0.162c0.095,0.103 0.143,0.242 0.13,0.381l-4.898,56.231c-0.018,0.207 -0.161,0.38 -0.36,0.438l-21.811,6.232c-0.046,0.013 -0.092,0.019 -0.138,0.019z" fill="#1f212b"></path><path d="M50,65.937c-0.276,0 -0.5,-0.224 -0.5,-0.5v-8.49c0,-0.276 0.224,-0.5 0.5,-0.5c0.276,0 0.5,0.224 0.5,0.5v8.49c0,0.276 -0.224,0.5 -0.5,0.5z" fill="#1f212b"></path><path d="M50,46.658c-0.276,0 -0.5,-0.224 -0.5,-0.5v-4.789c0,-0.276 0.224,-0.5 0.5,-0.5c0.276,0 0.5,0.224 0.5,0.5v4.789c0,0.276 -0.224,0.5 -0.5,0.5z" fill="#1f212b"></path><path d="M50,74.116c-0.053,0 -0.105,-0.008 -0.156,-0.025l-15.384,-5.063c-0.195,-0.064 -0.332,-0.242 -0.343,-0.448l-0.585,-10.71c-0.008,-0.137 0.042,-0.271 0.136,-0.371c0.095,-0.1 0.226,-0.156 0.363,-0.156h7.79c0.269,0 0.489,0.212 0.5,0.48l0.181,4.526l7.498,2.56l7.508,-2.564l0.526,-7.897h-16.602c-0.267,0 -0.486,-0.209 -0.499,-0.475l-0.39,-7.79c-0.007,-0.137 0.042,-0.271 0.137,-0.37c0.095,-0.099 0.226,-0.155 0.362,-0.155h17.452l0.509,-6.789h-26.335c-0.262,0 -0.479,-0.202 -0.499,-0.462l-0.584,-7.79c-0.01,-0.139 0.038,-0.276 0.133,-0.377c0.095,-0.102 0.228,-0.16 0.366,-0.16h35.637c0.138,0 0.27,0.057 0.364,0.158c0.094,0.101 0.144,0.236 0.135,0.374l-2.337,37.973c-0.013,0.205 -0.148,0.381 -0.343,0.445l-15.384,5.063c-0.051,0.014 -0.103,0.023 -0.156,0.023zM35.097,68.185l14.903,4.904l14.905,-4.906l2.283,-37.104h-34.565l0.509,6.79h26.41c0.139,0 0.271,0.058 0.366,0.16c0.095,0.102 0.143,0.238 0.133,0.377l-0.584,7.789c-0.02,0.261 -0.237,0.462 -0.499,0.462h-17.391l0.34,6.79h16.661c0.139,0 0.271,0.057 0.365,0.158c0.094,0.101 0.143,0.237 0.134,0.375l-0.584,8.763c-0.014,0.201 -0.146,0.375 -0.338,0.44l-7.984,2.727c-0.104,0.036 -0.219,0.036 -0.322,0l-7.984,-2.727c-0.196,-0.067 -0.33,-0.247 -0.339,-0.453l-0.175,-4.388h-6.781z" fill="#1f212b"></path></g></g></svg>